<?xml version="1.0" encoding="utf-8"?>
<!-- Generator: Adobe Illustrator 18.0.0, SVG Export Plug-In . SVG Version: 6.00 Build 0)  -->
<!DOCTYPE svg PUBLIC "-//W3C//DTD SVG 1.1//EN" "http://www.w3.org/Graphics/SVG/1.1/DTD/svg11.dtd">
<svg version="1.1" id="Layer_1" xmlns="http://www.w3.org/2000/svg" xmlns:xlink="http://www.w3.org/1999/xlink" x="0px" y="0px"
	 viewBox="0 0 1300 1300" enable-background="new 0 0 1300 1300" xml:space="preserve">
<path fill="#00679A" d="M121.9,335.2h1056.3c22.4,0,40.6-18.2,40.6-40.6V193c0-22.4-18.2-40.6-40.6-40.6H121.9
	c-22.4,0-40.6,18.2-40.6,40.6v101.6C81.3,317,99.4,335.2,121.9,335.2z M121.9,741.4h1056.3c22.4,0,40.6-18.2,40.6-40.6V599.2
	c0-22.4-18.2-40.6-40.6-40.6H121.9c-22.4,0-40.6,18.2-40.6,40.6v101.6C81.3,723.2,99.4,741.4,121.9,741.4z M121.9,1147.7h1056.3
	c22.4,0,40.6-18.2,40.6-40.6v-101.6c0-22.4-18.2-40.6-40.6-40.6H121.9c-22.4,0-40.6,18.2-40.6,40.6V1107
	C81.3,1129.5,99.4,1147.7,121.9,1147.7z"/>
</svg>
